<mxfile>
    <diagram id="Q7zXAm7sxzjWgE68P2he" name="Page-1">
        <mxGraphModel dx="1066" dy="450" grid="1" gridSize="10" guides="1" tooltips="1" connect="1" arrows="1" fold="1" page="1" pageScale="1" pageWidth="827" pageHeight="1169" background="#ffffff" math="0" shadow="0">
            <root>
                <mxCell id="0"/>
                <mxCell id="1" parent="0"/>
                <mxCell id="44" style="edgeStyle=none;rounded=0;orthogonalLoop=1;jettySize=auto;html=1;exitX=0.5;exitY=0.5;exitDx=0;exitDy=0;exitPerimeter=0;entryX=0;entryY=0.5;entryDx=0;entryDy=0;sourcePerimeterSpacing=0;strokeColor=#000000;fontSize=20;fontColor=#000000;" parent="1" source="33" target="41" edge="1">
                    <mxGeometry relative="1" as="geometry"/>
                </mxCell>
                <mxCell id="33" value="Formulaire" style="shape=umlActor;verticalLabelPosition=bottom;verticalAlign=top;html=1;strokeColor=#000000;fillColor=none;fontSize=20;fontColor=#000000;" parent="1" vertex="1">
                    <mxGeometry x="180" y="310" width="30" height="60" as="geometry"/>
                </mxCell>
                <mxCell id="37" style="edgeStyle=none;rounded=0;orthogonalLoop=1;jettySize=auto;html=1;sourcePerimeterSpacing=0;strokeColor=#000000;fontSize=20;fontColor=#000000;" parent="1" edge="1">
                    <mxGeometry relative="1" as="geometry">
                        <mxPoint x="195" y="290" as="targetPoint"/>
                        <mxPoint x="195" y="220" as="sourcePoint"/>
                    </mxGeometry>
                </mxCell>
                <mxCell id="42" style="rounded=0;orthogonalLoop=1;jettySize=auto;html=1;exitX=0.5;exitY=0.5;exitDx=0;exitDy=0;exitPerimeter=0;entryX=0;entryY=0.5;entryDx=0;entryDy=0;sourcePerimeterSpacing=0;strokeColor=#000000;fontSize=20;fontColor=#000000;" parent="1" source="34" target="39" edge="1">
                    <mxGeometry relative="1" as="geometry"/>
                </mxCell>
                <mxCell id="43" style="edgeStyle=none;rounded=0;orthogonalLoop=1;jettySize=auto;html=1;exitX=0.5;exitY=0.5;exitDx=0;exitDy=0;exitPerimeter=0;entryX=0;entryY=0.5;entryDx=0;entryDy=0;sourcePerimeterSpacing=0;strokeColor=#000000;fontSize=20;fontColor=#000000;" parent="1" source="34" target="40" edge="1">
                    <mxGeometry relative="1" as="geometry"/>
                </mxCell>
                <mxCell id="34" value="Utilisateur" style="shape=umlActor;verticalLabelPosition=bottom;verticalAlign=top;html=1;strokeColor=#000000;fillColor=none;fontSize=20;fontColor=#000000;" parent="1" vertex="1">
                    <mxGeometry x="180" y="120" width="30" height="60" as="geometry"/>
                </mxCell>
                <mxCell id="38" value="GameOn - use cases" style="shape=umlFrame;whiteSpace=wrap;html=1;strokeColor=#000000;fillColor=none;fontSize=20;fontColor=#000000;width=210;height=30;" parent="1" vertex="1">
                    <mxGeometry x="280" y="80" width="280" height="360" as="geometry"/>
                </mxCell>
                <mxCell id="39" value="Remplir le formulaire" style="ellipse;whiteSpace=wrap;html=1;strokeColor=#000000;fillColor=none;fontSize=20;fontColor=#000000;" parent="1" vertex="1">
                    <mxGeometry x="340" y="130" width="140" height="70" as="geometry"/>
                </mxCell>
                <mxCell id="40" value="Soumettre le formulaire" style="ellipse;whiteSpace=wrap;html=1;strokeColor=#000000;fillColor=none;fontSize=20;fontColor=#000000;" parent="1" vertex="1">
                    <mxGeometry x="340" y="225" width="140" height="70" as="geometry"/>
                </mxCell>
                <mxCell id="41" value="Valider le formualire" style="ellipse;whiteSpace=wrap;html=1;strokeColor=#000000;fillColor=none;fontSize=20;fontColor=#000000;" parent="1" vertex="1">
                    <mxGeometry x="340" y="330" width="140" height="70" as="geometry"/>
                </mxCell>
                <mxCell id="45" value="" style="whiteSpace=wrap;html=1;aspect=fixed;fillColor=none;fontSize=20;fontColor=#000000;strokeColor=none;" parent="1" vertex="1">
                    <mxGeometry x="140" y="20" width="440" height="440" as="geometry"/>
                </mxCell>
            </root>
        </mxGraphModel>
    </diagram>
</mxfile>